<svg xmlns="http://www.w3.org/2000/svg" viewBox="0 0 640 640">
  <path d="M290.4 275.7C274 286 264.5 304.5 265.5 323.8C266.6 343.2 278.2 360.4 295.6 368.9C313.1 377.3 333.8 375.5 349.6 364.3C366 354 375.5 335.5 374.5 316.2C373.4 296.8 361.8 279.6 344.4 271.1C326.9 262.7 306.2 264.5 290.4 275.7zM432.7 207.3C427.5 202.1 421.2 198 414.3 195.3C396.2 188.2 356.7 188.5 331.2 188.8C327.1 188.8 323.3 188.9 320 188.9C316.7 188.9 312.8 188.9 308.6 188.8C283.1 188.5 243.8 188.1 225.7 195.3C218.8 198 212.6 202.1 207.3 207.3C202 212.5 198 218.8 195.3 225.7C188.2 243.8 188.6 283.4 188.8 308.9C188.8 313 188.9 316.8 188.9 320C188.9 323.2 188.9 327 188.8 331.1C188.6 356.6 188.2 396.2 195.3 414.3C198 421.2 202.1 427.4 207.3 432.7C212.5 438 218.8 442 225.7 444.7C243.8 451.8 283.3 451.5 308.8 451.2C312.9 451.2 316.7 451.1 320 451.1C323.3 451.1 327.2 451.1 331.4 451.2C356.9 451.5 396.2 451.9 414.3 444.7C421.2 442 427.4 437.9 432.7 432.7C438 427.5 442 421.2 444.7 414.3C451.9 396.3 451.5 356.9 451.2 331.3C451.2 327.1 451.1 323.2 451.1 319.9C451.1 316.6 451.1 312.8 451.2 308.5C451.5 283 451.9 243.6 444.7 225.5C442 218.6 437.9 212.4 432.7 207.1L432.7 207.3zM544 160C544 124.7 515.3 96 480 96L160 96C124.7 96 96 124.7 96 160L96 480C96 515.3 124.7 544 160 544L480 544C515.3 544 544 515.3 544 480L544 160z"/>
</svg>